<svg width="37" height="30" viewBox="0 0 37 30" fill="none" xmlns="http://www.w3.org/2000/svg">
<path d="M35.4583 0H1.54167C0.690667 0 0 0.672 0 1.5C0 2.328 0.690667 3 1.54167 3H35.4583C36.3093 3 37 2.328 37 1.5C37 0.672 36.3093 0 35.4583 0Z" fill="black"/>
<path d="M35 9H14C13.172 9 12.5 9.672 12.5 10.5C12.5 11.328 13.172 12 14 12H35C35.828 12 36.5 11.328 36.5 10.5C36.5 9.672 35.828 9 35 9Z" fill="black"/>
<path d="M35.4583 18H1.54167C0.690667 18 0 18.672 0 19.5C0 20.328 0.690667 21 1.54167 21H35.4583C36.3093 21 37 20.328 37 19.5C37 18.672 36.3093 18 35.4583 18Z" fill="black"/>
<path d="M35.5 27H14.5C13.672 27 13 27.672 13 28.5C13 29.328 13.672 30 14.5 30H35.5C36.328 30 37 29.328 37 28.5C37 27.672 36.328 27 35.5 27Z" fill="black"/>
</svg>
